<svg width="200" height="200" viewBox="0 0 200 200" fill="none" xmlns="http://www.w3.org/2000/svg">
<rect width="200" height="200" rx="5" fill="#F7FE24"/>
<path d="M91.7787 53.0395L79.089 80.9492L74.2808 50.6533C74.0388 49.1284 72.8261 47.9422 71.2962 47.7339L63.4297 46.6631C61.0051 46.333 58.9989 48.5291 59.5463 50.914L69.6825 95.077C69.75 95.3709 69.7637 95.6746 69.723 95.9735L66.5973 118.935C66.3366 120.85 67.6779 122.614 69.5932 122.875L77.0344 123.888C78.9497 124.149 80.7138 122.807 80.9745 120.892L84.1004 97.9293C84.141 97.6312 84.2351 97.3428 84.3781 97.0781L105.912 57.2229C107.074 55.0712 105.728 52.421 103.304 52.0912L95.4369 51.0202C93.9054 50.8117 92.4185 51.6325 91.7787 53.0395Z" fill="#F2D9EC" stroke="#E7C3DE"/>
<path d="M114.447 146.157L114.448 146.158C119.399 150.642 125.28 152.191 132.035 150.807C138.818 149.417 143.597 145.649 146.318 139.522C149.056 133.413 149.417 125.594 147.474 116.112L145.012 104.097L145.012 104.095C142.975 94.4331 139.499 87.2516 134.535 82.6209C129.547 77.9431 123.673 76.2847 116.963 77.6595C110.144 79.0566 105.363 82.9496 102.664 89.3063C99.9697 95.6062 99.6517 103.631 101.64 113.336L104.102 125.351L104.103 125.354C106.074 134.697 109.506 141.655 114.447 146.157ZM113.901 96.0733L113.901 96.0712C114.331 94.4889 115.023 93.2549 115.959 92.3423C116.894 91.4312 118.099 90.8158 119.596 90.5091C121.104 90.2001 122.463 90.3015 123.692 90.7923C124.923 91.2841 126.056 92.1806 127.085 93.515C129.156 96.2018 130.858 100.669 132.152 106.984L134.653 119.19C135.848 125.155 135.966 129.638 135.078 132.692C134.633 134.192 133.938 135.366 133.007 136.239C132.076 137.11 130.885 137.704 129.412 138.006C127.884 138.319 126.509 138.242 125.274 137.797C124.038 137.352 122.909 136.527 121.891 135.294C119.834 132.778 118.156 128.498 116.902 122.376L114.342 109.881C113.155 103.814 113.029 99.2282 113.901 96.0733Z" fill="black" stroke="#010101"/>
</svg>
