<svg width="200" height="200" viewBox="0 0 200 200" fill="none" xmlns="http://www.w3.org/2000/svg">
<rect width="200" height="200" rx="5" fill="#F7FE24"/>
<g filter="url(#filter0_d_14681:2203)">
<path d="M78.8558 82.67L92.2339 53.2465C92.7822 52.0405 94.0568 51.3369 95.3695 51.5156L103.237 52.5866C105.314 52.8693 106.468 55.1409 105.472 56.9852L83.9382 96.8405C83.7666 97.1581 83.6537 97.5041 83.605 97.8619L80.4791 120.825C80.2556 122.466 78.7436 123.616 77.1019 123.393L69.6607 122.38C68.019 122.156 66.8693 120.644 67.0927 119.002L70.2185 96.0409C70.2673 95.6823 70.2508 95.3179 70.1699 94.9651L60.0336 50.8022C59.5644 48.758 61.2841 46.8756 63.3622 47.1585L71.2287 48.2294C72.5401 48.4079 73.5796 49.4246 73.787 50.7317L78.8558 82.67Z" fill="#F2D9EC"/>
<path d="M91.7787 53.0395L79.089 80.9492L74.2808 50.6533C74.0388 49.1284 72.8261 47.9422 71.2962 47.7339L63.4297 46.6631C61.0051 46.333 58.9989 48.5291 59.5463 50.914L69.6825 95.077C69.75 95.3709 69.7637 95.6746 69.723 95.9735L66.5973 118.935C66.3366 120.85 67.6779 122.614 69.5932 122.875L77.0344 123.888C78.9497 124.149 80.7138 122.807 80.9745 120.892L84.1004 97.9293C84.141 97.6312 84.2351 97.3428 84.3781 97.0781L105.912 57.2229C107.074 55.0712 105.728 52.421 103.304 52.0912L95.4369 51.0202C93.9054 50.8117 92.4185 51.6325 91.7787 53.0395Z" stroke="#757575"/>
</g>
<g filter="url(#filter1_d_14681:2203)">
<path d="M146.984 116.212C148.915 125.638 148.541 133.34 145.862 139.319C143.209 145.292 138.567 148.958 131.934 150.317C125.329 151.671 119.612 150.161 114.783 145.787C109.948 141.381 106.551 134.536 104.592 125.25L102.13 113.236C100.153 103.585 100.484 95.6743 103.124 89.5023C105.758 83.2981 110.404 79.5138 117.063 78.1493C123.614 76.807 129.324 78.4191 134.193 82.9856C139.054 87.5199 142.498 94.5906 144.522 104.198L146.984 116.212ZM132.642 106.883C131.344 100.546 129.623 95.9884 127.481 93.2097C125.338 90.4309 122.676 89.3674 119.495 90.0193C116.341 90.6656 114.315 92.6392 113.419 95.9401C112.515 99.2089 112.659 103.889 113.851 109.979L116.412 122.477C117.671 128.621 119.369 132.999 121.505 135.611C123.635 138.192 126.304 139.153 129.512 138.496C132.613 137.86 134.628 135.973 135.557 132.833C136.48 129.66 136.343 125.08 135.144 119.091L132.642 106.883Z" fill="black"/>
<path d="M114.447 146.157L114.448 146.158C119.399 150.642 125.28 152.191 132.035 150.807C138.818 149.417 143.597 145.649 146.318 139.522C149.056 133.413 149.417 125.594 147.474 116.112L145.012 104.097L145.012 104.095C142.975 94.4331 139.499 87.2516 134.535 82.6209C129.547 77.9431 123.673 76.2847 116.963 77.6595C110.144 79.0566 105.363 82.9496 102.664 89.3063C99.9697 95.6062 99.6517 103.631 101.64 113.336L104.102 125.351L104.103 125.354C106.074 134.697 109.506 141.655 114.447 146.157ZM113.901 96.0733L113.901 96.0712C114.331 94.4889 115.023 93.2549 115.959 92.3423C116.894 91.4312 118.099 90.8158 119.596 90.5091C121.104 90.2001 122.463 90.3015 123.692 90.7923C124.923 91.2841 126.056 92.1806 127.085 93.515C129.156 96.2018 130.858 100.669 132.152 106.984L134.653 119.19C135.848 125.155 135.966 129.638 135.078 132.692C134.633 134.192 133.938 135.366 133.007 136.239C132.076 137.11 130.885 137.704 129.412 138.006C127.884 138.319 126.509 138.242 125.274 137.797C124.038 137.352 122.909 136.527 121.891 135.294C119.834 132.778 118.156 128.498 116.902 122.376L114.342 109.881C113.155 103.814 113.029 99.2282 113.901 96.0733Z" stroke="#010101"/>
</g>
<defs>
<filter id="filter0_d_14681:2203" x="52.9551" y="43.1299" width="63.8809" height="94.2908" filterUnits="userSpaceOnUse" color-interpolation-filters="sRGB">
<feFlood flood-opacity="0" result="BackgroundImageFix"/>
<feColorMatrix in="SourceAlpha" type="matrix" values="0 0 0 0 0 0 0 0 0 0 0 0 0 0 0 0 0 0 127 0" result="hardAlpha"/>
<feOffset dx="2" dy="5"/>
<feGaussianBlur stdDeviation="4"/>
<feComposite in2="hardAlpha" operator="out"/>
<feColorMatrix type="matrix" values="0 0 0 0 0.545833 0 0 0 0 0.545833 0 0 0 0 0.545833 0 0 0 0.45 0"/>
<feBlend mode="normal" in2="BackgroundImageFix" result="effect1_dropShadow_14681:2203"/>
<feBlend mode="normal" in="SourceGraphic" in2="effect1_dropShadow_14681:2203" result="shape"/>
</filter>
<filter id="filter1_d_14681:2203" x="93.8601" y="73.6921" width="65.3374" height="91.1047" filterUnits="userSpaceOnUse" color-interpolation-filters="sRGB">
<feFlood flood-opacity="0" result="BackgroundImageFix"/>
<feColorMatrix in="SourceAlpha" type="matrix" values="0 0 0 0 0 0 0 0 0 0 0 0 0 0 0 0 0 0 127 0" result="hardAlpha"/>
<feOffset dx="2" dy="5"/>
<feGaussianBlur stdDeviation="4"/>
<feComposite in2="hardAlpha" operator="out"/>
<feColorMatrix type="matrix" values="0 0 0 0 0.545833 0 0 0 0 0.545833 0 0 0 0 0.545833 0 0 0 0.45 0"/>
<feBlend mode="normal" in2="BackgroundImageFix" result="effect1_dropShadow_14681:2203"/>
<feBlend mode="normal" in="SourceGraphic" in2="effect1_dropShadow_14681:2203" result="shape"/>
</filter>
</defs>
</svg>
