<svg width="200" height="200" viewBox="0 0 200 200" fill="none" xmlns="http://www.w3.org/2000/svg">
<path d="M182.609 0H17.3913C7.78635 0 0 7.78635 0 17.3913V182.609C0 192.214 7.78635 200 17.3913 200H182.609C192.214 200 200 192.214 200 182.609V17.3913C200 7.78635 192.214 0 182.609 0Z" fill="#4E6FBF"/>
<path d="M53.2608 62.9482C60.2446 62.9482 66.2897 64.1119 71.3961 66.4394C76.5775 68.767 80.5575 72.0703 83.3361 76.3498C86.1147 80.6295 87.5038 85.6973 87.5038 91.5535C87.5038 97.3345 86.1147 102.402 83.3361 106.757C80.5575 111.036 76.5775 114.34 71.3961 116.667C66.2897 118.92 60.2446 120.046 53.2608 120.046H37.3784V141.781H19.1304V62.9482H53.2608ZM52.2471 105.18C57.729 105.18 61.8966 104.017 64.7502 101.689C67.6038 99.2867 69.0305 95.9081 69.0305 91.5535C69.0305 87.1239 67.6038 83.7453 64.7502 81.4178C61.8966 79.0152 57.729 77.814 52.2471 77.814H37.3784V105.18H52.2471Z" fill="white"/>
<path d="M120.787 46.9565H136.444L99.2722 153.043H83.615L120.787 46.9565Z" fill="white"/>
<path d="M154.223 143.133C148.891 143.133 143.973 142.157 139.467 140.205C135.036 138.178 131.394 135.325 128.541 131.646L138.679 119.483C142.959 125.264 147.84 128.155 153.322 128.155C160.756 128.155 164.473 123.8 164.473 115.091V77.5888H136.764V62.9482H182.609V114.077C182.609 123.763 180.205 131.045 175.4 135.925C170.594 140.73 163.535 143.133 154.223 143.133Z" fill="white"/>
</svg>
