<svg width="200" height="200" viewBox="0 0 200 200" fill="none" xmlns="http://www.w3.org/2000/svg">
<rect width="200" height="200" rx="5" fill="#2F5BEA"/>
<path d="M26.625 163L49.875 128.5L27.625 95H49.4375L60.8125 114.75L71.9375 95H93.125L70.75 128.188L94 163H71.8125L60.0625 142.562L48.25 163H26.625Z" fill="white"/>
<path d="M158.625 100.188C158.625 95.3958 157.354 91.9792 154.812 89.9375C152.312 87.8958 148.792 86.875 144.25 86.875H126.312V114H144.25C148.792 114 152.312 112.896 154.812 110.688C157.354 108.479 158.625 104.979 158.625 100.188ZM177.688 100.062C177.688 110.938 174.938 118.625 169.438 123.125C163.938 127.625 156.083 129.875 145.875 129.875H126.312V163H107.188V70.875H147.312C156.562 70.875 163.938 73.25 169.438 78C174.938 82.75 177.688 90.1042 177.688 100.062Z" fill="white"/>
<path d="M73.9373 43.6855H71.5398C69.1423 42.3242 59.5523 26.2612 59.286 22.9942L61.0175 20.1355C61.4171 19.4549 61.1507 18.6381 60.6179 18.2297C59.9519 17.8213 59.1528 18.0936 58.7532 18.6381L57.288 21.2245L57.1548 21.3606C56.0893 21.9052 51.8271 22.5858 44.6346 22.5858C37.4421 22.5858 33.1799 21.9052 32.2476 21.3606L32.1144 21.2245L30.6492 18.6381C30.2497 17.9575 29.4505 17.8213 28.7845 18.2297C28.1186 18.6381 27.9854 19.4549 28.3849 20.1355L29.9833 22.9942C29.7169 26.2612 20.1269 42.3242 17.7294 43.6855H15.3319C14.5328 43.6855 14 44.23 14 45.0468C14 45.8636 14.5328 46.4081 15.3319 46.4081H17.7294C20.1269 47.7693 29.7169 63.8324 29.9833 67.0994L28.2518 69.9581C27.8522 70.6387 28.1186 71.4555 28.6513 71.8639C28.9177 72 29.0509 72 29.3173 72C29.7169 72 30.2497 71.7277 30.5161 71.3194L31.9812 68.7329L32.1144 68.5968C32.9135 68.0523 37.1758 67.5078 44.5014 67.5078C51.8271 67.5078 55.9561 68.1884 56.8885 68.5968L57.0217 68.7329L58.4868 71.3194C58.7532 71.7277 59.1528 72 59.6855 72C59.9519 72 60.2183 72 60.3515 71.8639C61.0175 71.4555 61.1507 70.6387 60.7511 69.9581L59.286 67.0994C59.5523 63.8324 69.1423 47.6332 71.5398 46.4081H73.9373C74.7365 46.4081 75.2692 45.8636 75.2692 45.0468C75.2692 44.23 74.7365 43.6855 73.9373 43.6855ZM60.7511 32.7953C61.9498 34.9734 65.0133 40.2823 67.8104 43.6855H60.8843C59.286 42.5965 54.2246 34.565 53.5586 32.387L57.288 25.989C58.0872 27.6225 59.1528 29.8005 60.7511 32.7953ZM51.9603 54.848L47.0321 46.4081H57.288C55.0237 49.1306 52.8926 53.0783 52.7594 53.3506C52.4931 53.8951 52.2267 54.4396 51.9603 54.848ZM36.5098 53.3506C36.3766 53.0783 34.1123 49.1306 31.9812 46.4081H42.2371L37.3089 54.848C37.0426 54.4396 36.7762 53.8951 36.5098 53.3506ZM37.3089 35.2456L42.2371 43.6855H31.9812C34.2455 40.963 36.3766 37.0153 36.5098 36.743C36.7762 36.1985 37.0426 35.654 37.3089 35.2456ZM39.7064 34.0205C40.9052 34.1566 42.5035 34.2927 44.6346 34.2927C46.7657 34.2927 48.364 34.1566 49.5628 34.0205L44.6346 42.4604L39.7064 34.0205ZM44.6346 47.6332L49.5628 56.0731C48.364 55.937 46.7657 55.8009 44.6346 55.8009C42.5035 55.8009 40.9052 55.937 39.7064 56.0731L44.6346 47.6332ZM47.0321 43.6855L51.9603 35.2456C52.2267 35.654 52.4931 36.1985 52.7594 36.743C52.8926 37.0153 55.1569 40.963 57.288 43.6855H47.0321ZM44.6346 25.3083C49.696 25.3083 53.0258 25.0361 55.1569 24.7638L51.4275 31.0257C50.7615 31.2979 48.364 31.5702 44.6346 31.5702C40.9052 31.5702 38.5077 31.2979 37.8417 31.0257L34.1123 24.6277C36.2434 25.0361 39.5732 25.3083 44.6346 25.3083ZM28.5181 32.7953C30.2497 29.8005 31.182 27.6225 31.848 25.989L35.5774 32.387C35.0446 34.565 29.8501 42.5965 28.2518 43.6855H21.4589C24.2559 40.4185 27.3194 34.9734 28.5181 32.7953ZM28.5181 57.2983C27.3194 55.1202 24.2559 49.8112 21.4589 46.4081H28.3849C29.9833 47.4971 35.0446 55.5286 35.7106 57.7066L31.848 64.1046C31.182 62.4711 30.1165 60.2931 28.5181 57.2983ZM44.6346 64.7853C39.5732 64.7853 36.2434 65.0575 34.1123 65.3298L37.8417 59.0679C38.5077 58.7957 40.9052 58.5234 44.6346 58.5234C48.364 58.5234 50.7615 58.7957 51.4275 59.0679L55.1569 65.3298C53.0258 65.0575 49.696 64.7853 44.6346 64.7853ZM60.7511 57.2983C59.0196 60.2931 58.0872 62.4711 57.4212 64.1046L53.6918 57.7066C54.2246 55.5286 59.4191 47.4971 61.0175 46.4081H67.9436C65.0133 49.6751 61.9498 55.1202 60.7511 57.2983Z" fill="white"/>
</svg>
